<?xml version="1.0" encoding="UTF-8" standalone="no"?>
<!-- Created with Inkscape (http://www.inkscape.org/) -->
<svg xmlns:dc="http://purl.org/dc/elements/1.1/" xmlns:cc="http://creativecommons.org/ns#" xmlns:rdf="http://www.w3.org/1999/02/22-rdf-syntax-ns#" xmlns:svg="http://www.w3.org/2000/svg" xmlns="http://www.w3.org/2000/svg" xmlns:sodipodi="http://sodipodi.sourceforge.net/DTD/sodipodi-0.dtd" xmlns:inkscape="http://www.inkscape.org/namespaces/inkscape" width="1000" height="1265.9805" id="svg2" version="1.1" inkscape:version="0.48.2 r9819" sodipodi:docname="drawing.svg">
  <defs id="defs4"/>
  <sodipodi:namedview id="base" pagecolor="#ffffff" bordercolor="#666666" borderopacity="1.0" inkscape:pageopacity="0.0" inkscape:pageshadow="2" inkscape:zoom="0.37520854" inkscape:cx="1200.4363" inkscape:cy="250.96504" inkscape:document-units="px" inkscape:current-layer="layer1" showgrid="false" inkscape:window-width="1920" inkscape:window-height="1028" inkscape:window-x="-8" inkscape:window-y="-8" inkscape:window-maximized="1" fit-margin-left="0.5" fit-margin-bottom="0.5" fit-margin-top="0.5" fit-margin-right="0.5">
    <inkscape:grid type="xygrid" id="grid2996" empspacing="5" visible="true" enabled="true" snapvisiblegridlinesonly="true"/>
  </sodipodi:namedview>
  <metadata id="metadata7">
    <rdf:RDF>
      <cc:Work rdf:about="">
        <dc:format>image/svg+xml</dc:format>
        <dc:type rdf:resource="http://purl.org/dc/dcmitype/StillImage"/>
        <dc:title/>
      </cc:Work>
    </rdf:RDF>
  </metadata>
  <g inkscape:label="Layer 1" inkscape:groupmode="layer" id="layer1" transform="translate(-44.864614,237.85554)">
    <g id="g3030" transform="matrix(1.7692602,0,0,1.7692602,-34.897194,-790.51103)">
      <path sodipodi:nodetypes="ccccccccccccc" inkscape:connector-curvature="0" id="path2997" d="m 65.499999,1024.3622 0,-81.00002 c 0,-12.98618 9.994266,-22 22.5,-22 l 54.500001,0 0,26.5 -46.500001,0 0,13 40.000001,0 c 0,18.17561 -11.00153,24.5 -20.80357,24.5 l -19.196431,0 0,20.00002 c 0,13.0282 -9.354693,19 -20.875,19 z" style="color:#000000;fill:#000000;stroke:none;stroke-width:0.1;marker:none;visibility:visible;display:inline;overflow:visible;enable-background:accumulate"/>
      <path sodipodi:nodetypes="ccccccccccc" inkscape:connector-curvature="0" id="path3003" d="m 181,921.36218 -31,0 0,63.28571 c 0,31.82101 20.74846,42.80361 46.78571,42.80361 25.69666,0 46.71429,-9.299 46.71429,-43.00003 l 0,-63.08929 -31,0 0,62.0625 c 0,12.70964 -6.89191,17.93752 -15.5,17.93752 -10.42834,0 -16,-7.54041 -16,-18.25002 z" style="color:#000000;fill:#000000;stroke:none;stroke-width:0.1;marker:none;visibility:visible;display:inline;overflow:visible;enable-background:accumulate"/>
      <path sodipodi:nodetypes="ccccccccccccc" inkscape:connector-curvature="0" id="path3009" d="m 250,989.86218 c 0,24.35692 20.46664,37.41072 45.53571,37.41072 25.43592,0 46.69643,-11.216 46.69643,-35.71429 0,-36.92636 -59.10714,-28.16003 -59.10714,-42.85714 0,-3.77531 3.31542,-6.78572 10.89286,-6.78572 7.79698,0 12.98214,3.82007 12.98214,10.44643 l 29,0 c 0,-22.35533 -17.00391,-33.57143 -41.17857,-33.57143 -17.14359,0 -41.07143,6.58999 -41.07143,34.73215 0,33.88086 57.32143,26.42049 57.32143,41.33928 0,6.15642 -4.7579,9.37502 -13.57143,9.37502 -9.44442,0 -16.85714,-3.5605 -16.85714,-14.37502 z" style="color:#000000;fill:#000000;stroke:none;stroke-width:0.1;marker:none;visibility:visible;display:inline;overflow:visible;enable-background:accumulate"/>
      <path inkscape:connector-curvature="0" id="path3017" d="m 349,1024.3622 0,-103.00002 31,0 0,103.00002 z" style="color:#000000;fill:#000000;stroke:none;stroke-width:0.1;marker:none;visibility:visible;display:inline;overflow:visible;enable-background:accumulate"/>
      <path id="path3019" d="m 438.65625,919.03125 c -34.27416,0 -51,27.00449 -51,54.53125 0,34.6706 25.65681,54.0625 51,54.0625 24.92632,0 50.625,-17.2356 50.625,-54.6875 0,-28.14536 -16.82105,-53.90625 -50.625,-53.90625 z m -0.25,25.8125 c 12.57679,0 20.0625,9.9496 20.0625,27.96875 0,20.02535 -9.32608,28.6563 -20.4375,28.6563 -11.08804,0 -19.5625,-12.45844 -19.5625,-28.1563 0,-14.90819 5.64601,-28.46875 19.9375,-28.46875 z" style="color:#000000;fill:#000000;stroke:none;stroke-width:0.1;marker:none;visibility:visible;display:inline;overflow:visible;enable-background:accumulate" inkscape:connector-curvature="0"/>
      <path sodipodi:nodetypes="cccccccccccc" inkscape:connector-curvature="0" id="path3023" d="m 528,1024.3622 -30.5,0 0,-63.00002 c 0,-26.18563 12.37371,-42.45112 46.66961,-42.45112 33.90674,0 46.33039,16.60725 46.33039,41.45112 l 0,64.00002 -8.5,0 c -14.22777,0 -22,-9.774 -22,-22 l 0,-37.00002 c 0,-13.1734 -5.34461,-20.42049 -16.30153,-20.42049 -11.82101,0 -15.69847,8.00203 -15.69847,20.42049 z" style="color:#000000;fill:#000000;stroke:none;stroke-width:0.1;marker:none;visibility:visible;display:inline;overflow:visible;enable-background:accumulate"/>
      <path style="color:#000000;fill:#000000;stroke:none;stroke-width:0.1;marker:none;visibility:visible;display:inline;overflow:visible;enable-background:accumulate" d="m 331.58491,869.28149 c 0,0 -12.83864,4.08918 -28.37904,4.08918 -44.88054,0 -92.88763,-32.01675 -126.83343,-91.49459 C 134.50259,705.97071 99.725416,635.32704 72.252893,561.1264 59.710874,527.29399 45.364615,483.44892 45.364615,454.8886 c 0,-82.86374 68.467935,-142.2407 143.520705,-142.2407 45.52973,0 241.72695,51.19895 321.84372,85.80819 23.1126,10.03202 99.27835,49.50783 99.27835,112.91285 0,24.59103 -36.53673,121.86879 -52.94059,165.5232 -10.23291,25.23292 -17.69592,44.05689 -44.61888,64.17899 l -110.0412,84.91775 c -20.38554,-22.83306 -32.30465,-58.88576 -42.96057,-90.61884 35.99165,-14.69035 82.08035,-40.80028 82.08035,-40.80028 6.9571,-4.08183 6.92861,-4.66531 9.53832,-12.26128 5.50433,-15.88974 13.66192,-45.95248 13.66192,-71.5791 l -121.44067,37.76013 -1.76001,-16.64005 c 0,-22.1055 7.05431,-47.05994 26.08369,-60.26507 38.57381,-26.7676 108.76593,-29.17535 146.01356,-29.17535 31.02809,0 52.65692,1.22987 52.65692,1.22987 l 0.52685,-9.54998 c 0,-18.15986 -10.44418,-31.4347 -21.40304,-42.56057 -16.85796,-17.11457 -45.69963,-26.79106 -81.38425,-31.76138 -33.87434,-5.64913 -79.90373,-10.79846 -129.37375,-10.79846 -70.46489,0 -134.24067,50.41601 -134.24067,131.84076 0,96.97187 83.9435,277.89164 131.17954,288.47221 z" id="path3000" inkscape:connector-curvature="0" sodipodi:nodetypes="cccccccccccccccccscccscccc"/>
    </g>
  </g>
</svg>